<svg width="408" height="333" viewBox="0 0 408 333" fill="none" xmlns="http://www.w3.org/2000/svg">
<path d="M386.642 207.164C386.735 220.475 384.052 233.659 378.765 245.877C373.478 258.094 365.702 269.077 355.932 278.125C340.816 292.032 322.543 302.059 302.688 307.341C292.428 310.178 281.827 311.6 271.182 311.567H139.57C127.922 311.643 116.329 309.967 105.179 306.595C57.7549 291.929 21.3574 257.758 21.3574 207.164C21.3574 179.39 36.8616 149.511 59.38 125.962C56.4087 123.156 54.0423 119.772 52.4256 116.019C50.8089 112.267 49.976 108.223 49.978 104.137V51.3893C49.9375 46.6417 51.0316 41.953 53.1692 37.7131C55.3069 33.4732 58.4264 29.8044 62.2683 27.0118C66.1103 24.2192 70.5638 22.3835 75.2585 21.6572C79.9533 20.931 84.7537 21.3351 89.2607 22.8361C108.595 29.2328 129.853 43.1863 152.438 64.2656C157.587 69.0582 160.875 75.5144 161.724 82.4946H246.292C247.141 75.5144 250.43 69.0582 255.578 64.2656C278.163 43.12 299.421 29.1665 318.772 22.8361C323.277 21.3416 328.074 20.9425 332.764 21.6719C337.455 22.4013 341.903 24.2381 345.741 27.0299C349.579 29.8218 352.695 33.4881 354.831 37.7246C356.966 41.9611 358.06 46.6456 358.022 51.3893V104.088C358.03 108.182 357.201 112.235 355.584 115.997C353.967 119.758 351.597 123.15 348.62 125.962C371.138 149.445 386.642 179.324 386.642 207.164Z" fill="#FFBA53"/>
<path d="M386.957 207.164C387.05 220.477 384.366 233.662 379.075 245.88C373.785 258.098 366.005 269.08 356.231 278.125C341.098 292.068 322.794 302.118 302.903 307.407C292.677 310.212 282.117 311.612 271.513 311.567H139.885C128.237 311.644 116.643 309.968 105.494 306.595C58.0699 291.929 21.6724 257.758 21.6724 207.164C21.6724 179.39 37.1765 149.511 59.6949 125.963C56.7214 123.157 54.3524 119.774 52.7329 116.021C51.1134 112.268 50.2774 108.225 50.2763 104.138V51.3895C50.235 46.64 51.3291 41.9492 53.4677 37.7075C55.6062 33.4659 58.7274 29.7959 62.5715 27.0029C66.4156 24.21 70.8715 22.3748 75.5685 21.6501C80.2654 20.9253 85.0677 21.3321 89.5756 22.8363C108.91 29.233 130.152 43.1865 152.753 64.2658C157.89 69.0671 161.176 75.5188 162.039 82.4948H246.607C247.451 75.5168 250.734 69.0609 255.876 64.2658C278.478 43.1202 299.736 29.1667 319.07 22.8363C323.577 21.3386 328.375 20.9369 333.068 21.6647C337.76 22.3926 342.211 24.2289 346.051 27.0211C349.891 29.8133 353.009 33.4808 355.145 37.7191C357.282 41.9573 358.376 46.6439 358.337 51.3895V104.088C358.342 108.183 357.51 112.236 355.89 115.998C354.27 119.76 351.898 123.151 348.918 125.963C371.436 149.445 386.957 179.324 386.957 207.164Z" fill="#FFBA53"/>
<path d="M266.506 76.0319C281.877 61.6476 302.986 44.9266 323.763 38.0493C325.863 37.3775 328.093 37.2117 330.269 37.5656C332.446 37.9195 334.508 38.7829 336.287 40.0855C338.066 41.3881 339.511 43.0928 340.504 45.0603C341.498 47.0278 342.012 49.2024 342.003 51.4062V104.088C342.007 106.406 341.434 108.689 340.335 110.731C339.236 112.772 337.646 114.508 335.708 115.782C333.77 117.057 331.545 117.829 329.234 118.029C326.923 118.23 324.598 117.852 322.47 116.931C306.31 109.891 289.607 104.166 272.525 99.8124C270.096 99.183 267.881 97.9127 266.112 96.1342C264.343 94.3557 263.084 92.1346 262.469 89.7034C261.854 87.2722 261.904 84.7204 262.614 82.3152C263.324 79.91 264.668 77.7398 266.506 76.0319V76.0319Z" fill="#FF7A00"/>
<path d="M141.494 76.0319C126.123 61.6476 105.014 44.9266 84.2364 38.0493C82.1362 37.3775 79.9067 37.2117 77.7301 37.5656C75.5535 37.9195 73.4915 38.7829 71.7127 40.0855C69.9339 41.3881 68.4887 43.0928 67.4952 45.0603C66.5017 47.0278 65.988 49.2024 65.9962 51.4062V104.088C65.997 106.398 66.5709 108.671 67.6664 110.705C68.7619 112.739 70.3449 114.469 72.2737 115.742C74.2025 117.014 76.4169 117.789 78.7187 117.997C81.0205 118.204 83.3379 117.838 85.4635 116.931C101.625 109.893 118.327 104.168 135.408 99.8124C137.843 99.1917 140.065 97.9276 141.842 96.1528C143.619 94.378 144.885 92.1579 145.507 89.7256C146.13 87.2932 146.085 84.7383 145.379 82.3288C144.673 79.9194 143.331 77.7443 141.494 76.0319Z" fill="#FF7A00"/>
<path d="M354.424 125.532L350.825 127.189C373.941 151.218 367.523 177.981 367.523 202.839C367.607 214.754 365.205 226.557 360.472 237.493C355.738 248.429 348.776 258.26 340.03 266.359C327.196 278.522 310.68 295.343 292.274 300.48C283.091 303 273.608 304.26 264.085 304.225H146.319C135.888 304.265 125.509 302.746 115.527 299.718C73.0602 286.576 40.4766 248.097 40.4766 202.839C40.4766 177.981 34.0593 151.218 54.2231 127.106L50.6082 125.449C31.9203 151.964 14.8242 178.644 14.8242 202.839C14.9546 226.745 23.4089 249.86 38.7355 268.215C52.1835 284.654 77.0564 297.928 99.8069 306.612C115.178 312.462 131.694 323.333 148.906 323.333H261.332C282.225 323.333 302.787 310.871 320.911 302.203C333.082 296.387 349.018 288.946 358.254 280.246C380.159 259.515 390.44 232.751 390.44 202.839C390.44 178.644 376.08 152.013 357.392 128.498" fill="#FFA439"/>
<path d="M341.506 195.15C325.72 287.952 279.954 277.412 203.991 277.412C128.029 277.412 82.5614 285.532 66.4769 195.15C59.1642 154.002 128.046 119.466 203.991 119.466C279.937 119.466 348.52 153.936 341.506 195.15Z" fill="#191C28"/>
<path d="M375.317 124.057C377.992 117.738 379.373 110.948 379.38 104.088V51.3894C379.408 43.2703 377.505 35.2607 373.827 28.0211C370.149 20.7816 364.802 14.5195 358.227 9.7512C351.651 4.98287 344.036 1.84492 336.008 0.596146C327.981 -0.65263 319.771 0.0234726 312.057 2.5688C289.754 9.92668 265.843 25.471 240.953 48.7544C237.075 52.3769 233.786 56.5814 231.203 61.2164H176.797C174.202 56.5848 170.914 52.3768 167.047 48.7379C142.174 25.5374 118.246 9.9267 95.9769 2.58539C88.2616 0.0301682 80.0488 -0.654059 72.0166 0.589166C63.9845 1.83239 56.3636 4.96739 49.7832 9.73532C43.2028 14.5032 37.8518 20.7672 34.1721 28.01C30.4924 35.2528 28.5896 43.2665 28.6208 51.3894V104.088C28.6272 110.948 30.0085 117.738 32.6834 124.057C11.7901 150.34 0.000277339 180.069 0.000277339 207.098C-0.183261 233.683 8.93116 259.497 25.7687 280.08C40.7754 298.442 62.1496 313.224 87.5532 322.968C105.071 329.602 123.657 332.972 142.39 332.911H268.032C291.042 332.99 313.781 327.94 334.592 318.129C347.832 311.875 360.008 303.582 370.674 293.553C382.564 282.539 392.025 269.167 398.452 254.292C404.879 239.417 408.131 223.366 408 207.164C408 180.069 396.194 150.323 375.317 124.057ZM355.933 278.059C340.823 291.99 322.55 302.04 302.688 307.341C292.428 310.179 281.828 311.6 271.182 311.567H139.571C127.923 311.643 116.329 309.968 105.18 306.595C57.7554 291.929 21.3579 257.758 21.3579 207.164C21.3579 179.39 36.8621 149.511 59.3804 125.962C56.4092 123.156 54.0427 119.772 52.426 116.02C50.8093 112.267 49.9764 108.223 49.9784 104.137V51.3894C49.938 46.6418 51.032 41.9531 53.1697 37.7132C55.3074 33.4732 58.4268 29.8045 62.2688 27.0119C66.1108 24.2193 70.5642 22.3836 75.259 21.6573C79.9537 20.931 84.7541 21.3352 89.2611 22.8362C108.596 29.2329 129.854 43.1864 152.439 64.2657C157.587 69.0583 160.876 75.5145 161.724 82.4947H246.293C247.141 75.5145 250.43 69.0583 255.579 64.2657C278.163 43.1201 299.421 29.1666 318.773 22.8362C323.278 21.3417 328.074 20.9426 332.765 21.672C337.455 22.4014 341.904 24.2382 345.741 27.03C349.579 29.8219 352.695 33.4882 354.831 37.7247C356.967 41.9612 358.061 46.6457 358.022 51.3894V104.088C358.031 108.182 357.201 112.235 355.584 115.997C353.967 119.759 351.597 123.15 348.62 125.962C371.139 149.494 386.643 179.373 386.643 207.164C386.726 220.464 384.039 233.636 378.752 245.841C373.465 258.046 365.694 269.018 355.933 278.059V278.059Z" fill="#181C28"/>
<path d="M341.838 195.15C326.052 287.952 280.269 208.589 204.323 208.589C128.378 208.589 82.8932 285.532 66.8087 195.15C59.496 154.002 128.378 119.466 204.323 119.466C280.269 119.466 348.852 153.936 341.838 195.15Z" fill="#1D212D"/>
<path d="M286.404 220.273C285.59 220.033 284.9 219.49 284.474 218.756C284.048 218.023 283.92 217.154 284.116 216.329C285.444 211.281 284.832 205.919 282.402 201.3C279.971 196.681 275.897 193.138 270.983 191.371C270.469 191.173 269.943 191.007 269.408 190.874C263.986 189.507 258.242 190.344 253.437 193.202C248.632 196.06 245.156 200.706 243.772 206.12C243.589 206.792 243.149 207.365 242.547 207.715C241.946 208.066 241.23 208.165 240.555 207.993L230.026 205.176C229.416 204.991 228.902 204.576 228.592 204.02C228.283 203.463 228.202 202.808 228.367 202.193C233.624 182.655 253.539 170.574 272.774 175.264L273.603 175.462C282.993 178.009 290.992 184.169 295.849 192.595C300.706 201.02 302.026 211.026 299.521 220.422C299.413 220.827 299.226 221.207 298.971 221.54C298.716 221.873 298.397 222.153 298.033 222.362C297.669 222.572 297.268 222.707 296.852 222.761C296.435 222.815 296.012 222.786 295.607 222.676L286.404 220.273Z" fill="#FF9900"/>
<path d="M168.207 207.827C167.799 207.94 167.372 207.97 166.952 207.917C166.532 207.864 166.127 207.727 165.76 207.516C165.392 207.305 165.071 207.023 164.814 206.687C164.556 206.35 164.369 205.966 164.261 205.557C162.864 200.54 159.644 196.224 155.23 193.456C150.816 190.688 145.527 189.667 140.399 190.593C139.852 190.692 139.305 190.808 138.741 190.957C133.363 192.486 128.811 196.083 126.082 200.959C123.353 205.836 122.67 211.595 124.182 216.975C124.355 217.647 124.258 218.36 123.91 218.961C123.563 219.562 122.994 220.004 122.325 220.19L111.795 223.007C111.182 223.181 110.525 223.103 109.968 222.793C109.411 222.482 109.001 221.963 108.827 221.35C103.587 201.795 114.78 181.379 133.8 175.827L134.612 175.595C144.03 173.084 154.06 174.41 162.5 179.281C170.941 184.153 177.102 192.173 179.632 201.58C179.743 201.986 179.772 202.409 179.719 202.826C179.665 203.244 179.529 203.646 179.32 204.011C179.111 204.376 178.831 204.696 178.498 204.952C178.164 205.209 177.784 205.398 177.377 205.507L168.207 207.827Z" fill="#FF9900"/>
<path d="M386.642 207.164C386.735 220.475 384.052 233.659 378.765 245.877C373.478 258.094 365.702 269.077 355.932 278.125C340.816 292.032 322.543 302.059 302.688 307.341C292.428 310.178 281.827 311.6 271.182 311.567H139.57C127.922 311.643 116.329 309.967 105.179 306.595C57.7549 291.929 21.3574 257.758 21.3574 207.164C21.3574 179.39 36.8616 149.511 59.38 125.962C56.4087 123.156 54.0423 119.772 52.4256 116.019C50.8089 112.267 49.976 108.223 49.978 104.137V51.3893C49.9375 46.6417 51.0316 41.953 53.1692 37.7131C55.3069 33.4732 58.4264 29.8044 62.2683 27.0118C66.1103 24.2192 70.5638 22.3835 75.2585 21.6572C79.9533 20.931 84.7537 21.3351 89.2607 22.8361C108.595 29.2328 129.853 43.1863 152.438 64.2656C157.587 69.0582 160.875 75.5144 161.724 82.4946H246.292C247.141 75.5144 250.43 69.0582 255.578 64.2656C278.163 43.12 299.421 29.1665 318.772 22.8361C323.277 21.3416 328.074 20.9425 332.764 21.6719C337.455 22.4013 341.903 24.2381 345.741 27.0299C349.579 29.8218 352.695 33.4881 354.831 37.7246C356.966 41.9611 358.06 46.6456 358.022 51.3893V104.088C358.03 108.182 357.201 112.235 355.584 115.997C353.967 119.758 351.597 123.15 348.62 125.962C371.138 149.445 386.642 179.324 386.642 207.164Z" fill="#FFBA53"/>
<path d="M83.6066 132.409C80.6323 129.605 78.2637 126.222 76.6468 122.468C75.0298 118.715 74.1987 114.67 74.2046 110.584V57.9021C74.1958 49.9496 77.3439 42.3184 82.9581 36.6827C88.5724 31.047 96.1943 27.8671 104.152 27.8408C107.325 27.8441 110.478 28.359 113.487 29.3655C132.822 35.7456 154.08 49.6991 176.665 70.795C181.802 75.5963 185.088 82.048 185.951 89.024H270.519C271.381 82.048 274.668 75.5963 279.805 70.795C302.389 49.6494 323.648 35.6959 342.999 29.3655C346.002 28.3579 349.149 27.843 352.318 27.8408C368.9 27.8408 363.71 40.6509 363.71 57.2227L353.23 112.059C353.23 120.643 365.617 127.205 359.863 132.691C382.381 156.223 393.574 185.505 393.574 213.279C393.574 242.114 361.007 259.846 342.054 277.777C327.727 291.349 347.443 308.12 326.881 313.837C316.652 316.654 306.085 318.065 295.475 318.03H163.797C152.149 318.097 140.557 316.421 129.406 313.058C81.9816 298.309 45.667 264.138 45.667 213.594" fill="#FFBA53"/>
<path d="M271.828 76.2471C284.895 64.0171 302.803 49.8151 320.513 43.9818C322.297 43.4091 324.191 43.2663 326.04 43.5653C327.89 43.8643 329.642 44.5965 331.155 45.702C332.667 46.8075 333.896 48.2551 334.741 49.9262C335.586 51.5973 336.023 53.4445 336.017 55.3169V100.061C336.018 102.028 335.53 103.965 334.596 105.697C333.663 107.429 332.314 108.903 330.67 109.986C329.026 111.068 327.139 111.726 325.178 111.9C323.217 112.074 321.244 111.758 319.435 110.982C305.703 104.996 291.506 100.135 276.985 96.4481C274.925 95.9096 273.048 94.8297 271.547 93.3206C270.046 91.8114 268.976 89.9281 268.45 87.8664C267.924 85.8046 267.959 83.6396 268.554 81.5963C269.148 79.553 270.278 77.7059 271.828 76.2471V76.2471Z" fill="#171C28"/>
<path d="M136.171 76.2471C123.105 64.0171 105.196 49.8151 87.503 43.9818C85.7192 43.4091 83.8252 43.2663 81.9756 43.5653C80.1261 43.8643 78.3736 44.5965 76.8615 45.702C75.3494 46.8076 74.1205 48.2551 73.2753 49.9262C72.4302 51.5973 71.9928 53.4445 71.9988 55.3169V100.061C71.9941 102.03 72.4796 103.969 73.4118 105.703C74.3439 107.438 75.6934 108.914 77.3384 109.997C78.9835 111.08 80.8725 111.738 82.8351 111.91C84.7977 112.082 86.7723 111.763 88.5808 110.982C102.319 104.996 116.521 100.135 131.047 96.4481C133.108 95.91 134.986 94.8293 136.487 93.3187C137.987 91.8082 139.055 89.9229 139.578 87.8597C140.102 85.7964 140.062 83.6307 139.462 81.5882C138.863 79.5457 137.726 77.7012 136.171 76.2471V76.2471Z" fill="#171C28"/>
<path d="M341.506 195.15C325.72 287.952 279.954 277.412 203.991 277.412C128.029 277.412 82.5614 285.532 66.4769 195.15C59.1642 154.002 128.046 119.466 203.991 119.466C279.937 119.466 348.52 153.936 341.506 195.15Z" fill="#191C28"/>
<path d="M375.317 124.057C377.992 117.738 379.373 110.948 379.38 104.088V51.3894C379.408 43.2703 377.505 35.2607 373.827 28.0211C370.149 20.7816 364.802 14.5195 358.227 9.7512C351.651 4.98287 344.036 1.84492 336.008 0.596146C327.981 -0.65263 319.771 0.0234726 312.057 2.5688C289.754 9.92668 265.843 25.471 240.953 48.7544C237.075 52.3769 233.786 56.5814 231.203 61.2164H176.797C174.202 56.5848 170.914 52.3768 167.047 48.7379C142.174 25.5374 118.246 9.9267 95.9769 2.58539C88.2616 0.0301682 80.0488 -0.654059 72.0166 0.589166C63.9845 1.83239 56.3636 4.96739 49.7832 9.73532C43.2028 14.5032 37.8518 20.7672 34.1721 28.01C30.4924 35.2528 28.5896 43.2665 28.6208 51.3894V104.088C28.6272 110.948 30.0085 117.738 32.6834 124.057C11.7901 150.34 0.000277339 180.069 0.000277339 207.098C-0.183261 233.683 8.93116 259.497 25.7687 280.08C40.7754 298.442 62.1496 313.224 87.5532 322.968C105.071 329.602 123.657 332.972 142.39 332.911H268.032C291.042 332.99 313.781 327.94 334.592 318.129C347.832 311.875 360.008 303.582 370.674 293.553C382.564 282.539 392.025 269.167 398.452 254.292C404.879 239.417 408.131 223.366 408 207.164C408 180.069 396.194 150.323 375.317 124.057ZM355.933 278.059C340.823 291.99 322.55 302.04 302.688 307.341C292.428 310.179 281.828 311.6 271.182 311.567H139.571C127.923 311.643 116.329 309.968 105.18 306.595C57.7554 291.929 21.3579 257.758 21.3579 207.164C21.3579 179.39 36.8621 149.511 59.3804 125.962C56.4092 123.156 54.0427 119.772 52.426 116.02C50.8093 112.267 49.9764 108.223 49.9784 104.137V51.3894C49.938 46.6418 51.032 41.9531 53.1697 37.7132C55.3074 33.4732 58.4268 29.8045 62.2688 27.0119C66.1108 24.2193 70.5642 22.3836 75.259 21.6573C79.9537 20.931 84.7541 21.3352 89.2611 22.8362C108.596 29.2329 129.854 43.1864 152.439 64.2657C157.587 69.0583 160.876 75.5145 161.724 82.4947H246.293C247.141 75.5145 250.43 69.0583 255.579 64.2657C278.163 43.1201 299.421 29.1666 318.773 22.8362C323.278 21.3417 328.074 20.9426 332.765 21.672C337.455 22.4014 341.904 24.2382 345.741 27.03C349.579 29.8219 352.695 33.4882 354.831 37.7247C356.967 41.9612 358.061 46.6457 358.022 51.3894V104.088C358.031 108.182 357.201 112.235 355.584 115.997C353.967 119.759 351.597 123.15 348.62 125.962C371.139 149.494 386.643 179.373 386.643 207.164C386.726 220.464 384.039 233.636 378.752 245.841C373.465 258.046 365.694 269.018 355.933 278.059V278.059Z" fill="#181C28"/>
<path d="M341.838 195.15C326.052 287.952 280.269 228.293 204.323 228.293C128.378 228.293 82.8932 285.532 66.8087 195.15C59.496 154.002 128.378 119.466 204.323 119.466C280.269 119.466 348.852 153.936 341.838 195.15Z" fill="#1D212D"/>
<path d="M286.404 220.273C285.59 220.033 284.9 219.49 284.474 218.756C284.048 218.023 283.92 217.154 284.116 216.329C285.444 211.281 284.832 205.919 282.402 201.3C279.971 196.681 275.897 193.138 270.983 191.371C270.469 191.173 269.943 191.007 269.408 190.874C263.986 189.507 258.242 190.344 253.437 193.202C248.632 196.06 245.156 200.706 243.772 206.12C243.589 206.792 243.149 207.365 242.547 207.715C241.946 208.066 241.23 208.165 240.555 207.993L230.026 205.176C229.416 204.991 228.902 204.576 228.592 204.02C228.283 203.463 228.202 202.808 228.367 202.193C233.624 182.655 253.539 170.574 272.774 175.264L273.603 175.462C282.993 178.009 290.992 184.169 295.849 192.595C300.706 201.02 302.026 211.026 299.521 220.422C299.413 220.827 299.226 221.207 298.971 221.54C298.716 221.873 298.397 222.153 298.033 222.362C297.669 222.572 297.268 222.707 296.852 222.761C296.435 222.815 296.012 222.786 295.607 222.676L286.404 220.273Z" fill="#FB923C"/>
<path d="M168.207 207.827C167.799 207.94 167.372 207.97 166.952 207.917C166.532 207.864 166.127 207.727 165.76 207.516C165.392 207.305 165.071 207.023 164.814 206.687C164.556 206.35 164.369 205.966 164.261 205.557C162.864 200.54 159.644 196.224 155.23 193.456C150.816 190.688 145.527 189.667 140.399 190.593C139.852 190.692 139.305 190.808 138.741 190.957C133.363 192.486 128.811 196.083 126.082 200.959C123.353 205.836 122.67 211.595 124.182 216.975C124.355 217.647 124.258 218.36 123.91 218.961C123.563 219.562 122.994 220.004 122.325 220.19L111.795 223.007C111.182 223.181 110.525 223.103 109.968 222.793C109.411 222.482 109.001 221.963 108.827 221.35C103.587 201.795 114.78 181.379 133.8 175.827L134.612 175.595C144.03 173.084 154.06 174.41 162.5 179.281C170.941 184.153 177.102 192.173 179.632 201.58C179.743 201.986 179.772 202.409 179.719 202.826C179.665 203.244 179.529 203.646 179.32 204.011C179.111 204.376 178.831 204.696 178.498 204.952C178.164 205.209 177.784 205.398 177.377 205.507L168.207 207.827Z" fill="#FB923C"/>
</svg>
