<?xml version="1.0" encoding="UTF-8"?><svg xmlns="http://www.w3.org/2000/svg" viewBox="0 0 2904.76 593.75"><defs><style>.d{fill:#fff;}.e{fill:#fb923c;}.f{fill:#191d27;}</style></defs><g id="a"/><g id="b"><g id="c"><path class="e" d="M319.59,5.62l207.94,120.06c10.43,6.02,17.77,16.24,20.15,28.05l48.67,241.62c3.56,17.66-4.55,35.62-20.15,44.62l-256.6,148.15c-12.98,7.5-28.98,7.5-41.96,0L20.98,439.95c-15.6-9.01-23.71-26.97-20.15-44.62L49.49,153.75c2.38-11.81,9.72-22.03,20.15-28.05L277.63,5.62c12.98-7.5,28.98-7.5,41.96,0Z"/><path class="f" d="M458.19,208.55l-147.95,85.42c-7.21,4.16-16.1,4.16-23.31,0l-147.95-85.42c-15.54-8.97-15.54-31.4,0-40.38l147.95-85.41c7.21-4.16,16.1-4.16,23.31,0l147.95,85.41c15.54,8.97,15.54,31.4,0,40.38Z"/><path class="e" d="M405.17,182.4c-.65-.37-1.5-.65-2.51-.76l-94.22-10.38c-.19-.02-.37-.07-.5-.15-.16-.09-.27-.22-.29-.36l-4.67-42.82c-.08-.73-.61-1.35-1.38-1.8-1.76-1.02-4.81-1.19-6.84,0l-23.05,13.4c-.98,.57-1.49,1.36-1.39,2.16l3.39,28.05,3.25,18.5c.02,.16-.07,.33-.28,.45l-.53,.31c-.37,.22-.98,.21-1.36,0l-40.83-23.57c-1.89-1.09-4.94-1.09-6.82,0l-21.91,12.73c-1.87,1.09-1.86,2.86,.02,3.95l100.56,58.06c1.89,1.09,4.94,1.09,6.81,0l21.91-12.73c1.87-1.09,1.87-2.86-.02-3.95l-27.71-16c-.17-.1-.27-.22-.28-.36l-1.42-13.69c-.04-.36,.53-.65,1.15-.58l70.49,8.28c1.58,.19,3.22-.1,4.36-.76l24.1-14c2-1.16,1.76-2.93-.02-3.96"/><g><path class="f" d="M282.1,340.27v127.53c0,17.94-19.43,29.16-34.97,20.19l-156.87-90.57c-8.67-5-13.17-14.98-11.2-24.79l23.01-114.25c3.15-15.63,20.7-23.56,34.51-15.58l133.86,77.29c7.21,4.16,11.66,11.86,11.66,20.19Z"/><path class="f" d="M315.09,340.3v127.53c0,17.94,19.43,29.16,34.97,20.19l156.87-90.57c8.67-5,13.17-14.98,11.2-24.79l-23.01-114.25c-3.15-15.63-20.7-23.56-34.51-15.58l-133.86,77.29c-7.21,4.16-11.66,11.86-11.66,20.19Z"/></g><g><path class="d" d="M892.85,325.06l-34.21,42.56v99.81h-82.76V125.94h82.76v142.86h4.41l41.93-56.75,67.87-86.11h92.69l-115.32,144.33,120.83,197.17h-93.25l-84.97-142.37Z"/><path class="d" d="M1215.9,473.3c-47.82,0-84.06-11.74-108.7-35.23-24.65-23.48-36.97-55.45-36.97-95.89,0-20.55,3.22-39.06,9.66-55.53,6.43-16.47,15.63-30.49,27.59-42.08,11.95-11.57,26.48-20.38,43.59-26.42,17.1-6.03,36.32-9.05,57.66-9.05s40.46,3.02,57.38,9.05c16.91,6.04,31.26,14.6,43.04,25.69,11.77,11.09,20.87,24.55,27.31,40.36,6.43,15.82,9.66,33.51,9.66,53.08v21.53h-194.77v4.4c0,16.31,5.7,29.44,17.1,39.39,11.4,9.95,28.14,14.92,50.21,14.92,16.91,0,31.45-2.85,43.59-8.56,12.14-5.7,22.62-13.29,31.45-22.75l44.14,42.57c-11.03,12.07-26.48,22.51-46.35,31.31-19.86,8.81-45.06,13.21-75.59,13.21Zm-6.62-212.33c-17.66,0-31.73,4.82-42.21,14.43-10.48,9.62-15.72,22.59-15.72,38.9v3.91h114.76v-3.91c0-16.63-5.06-29.68-15.17-39.14-10.12-9.46-24-14.19-41.66-14.19Z"/><path class="d" d="M1574.23,214.98h83.31l-134.08,293.06c-8.47,18.59-19.68,32.78-33.66,42.56-13.98,9.79-33.11,14.68-57.38,14.68h-56.28v-56.75h40.53c16.88,0,32.1-10.16,38.57-25.75h0c4.45-10.72,4.23-22.81-.6-33.36l-107.2-234.44h87.73l41.38,106.17,25.93,73.39h4.41l24.83-73.39,42.48-106.17Z"/><path class="d" d="M1679.66,467.43V214.98h73.74v37.18h4.34c4.96-11.74,12.08-21.85,21.38-30.33,9.29-8.48,22.4-12.72,39.35-12.72,30.98,0,49.98,14.36,57.01,43.05h3.72c2.48-5.87,5.58-11.41,9.29-16.63,3.72-5.21,8.26-9.79,13.63-13.7,5.36-3.91,11.77-7.01,19.21-9.3,7.44-2.28,16.11-3.42,26.03-3.42,44.61,0,66.92,25.93,66.92,77.79v180.53h-73.74v-173.19c0-11.74-2.59-19.98-7.75-24.71-5.17-4.72-11.88-7.09-20.14-7.09s-14.56,2.04-20.14,6.12c-5.58,4.08-8.37,10.36-8.37,18.84v180.04h-74.36v-173.19c0-11.74-2.38-19.98-7.13-24.71-4.75-4.72-11.26-7.09-19.52-7.09s-15.29,2.04-21.07,6.12c-5.79,4.08-8.67,10.36-8.67,18.84v180.04h-73.74Z"/><path class="d" d="M2288.51,467.43c-16.92,0-30.53-3.83-40.83-11.5-10.3-7.66-16.37-18.67-18.21-33.02h-2.76c-5.16,16.63-15.36,29.19-30.62,37.67-15.27,8.48-33.93,12.72-56,12.72-27.59,0-49.75-6.61-66.49-19.82-16.74-13.21-25.1-31.72-25.1-55.53,0-26.42,10.85-45.99,32.55-58.71,21.7-12.72,53.52-19.08,95.45-19.08h45.8v-12.72c0-15-3.96-26.34-11.86-34-7.92-7.66-21.24-11.5-40-11.5-17.29,0-31.27,2.94-41.93,8.81-10.67,5.87-19.86,13.54-27.59,22.99l-44.69-35.23c9.56-14.35,24.55-26.18,44.97-35.47,20.41-9.29,46.62-13.94,78.62-13.94,38.98,0,69.43,7.91,91.32,23.73,21.88,15.82,32.83,39.71,32.83,71.67v110.57h31.45v52.35h-46.9Zm-117.52-41.59c14.34,0,26.48-3.1,36.41-9.3,9.93-6.19,14.9-15.17,14.9-26.91v-30.33h-43.59c-33.48,0-50.21,9.95-50.21,29.84v9.78c0,8.81,3.86,15.5,11.59,20.06,7.72,4.57,18.02,6.85,30.9,6.85Z"/><path class="d" d="M2484.66,473.3c-31.64,0-59.13-4.24-82.49-12.72-23.36-8.48-40.92-20.06-52.69-34.74l45.79-37.67c11.04,10.76,24,19.17,38.9,25.2,14.9,6.04,31.91,9.05,51.04,9.05,16.18,0,28.87-2.2,38.07-6.61,9.19-4.4,13.79-11.17,13.79-20.3,0-7.17-3.13-12.15-9.38-14.92-6.26-2.77-14.9-4.97-25.93-6.61l-45.79-6.36c-12.88-1.63-24.83-4.16-35.86-7.58-11.04-3.42-20.61-8.07-28.69-13.94-8.09-5.87-14.54-13.04-19.31-21.53-4.78-8.48-7.17-18.75-7.17-30.82,0-26.42,11.4-47.13,34.21-62.13,22.8-15,54.81-22.51,96.01-22.51,27.95,0,51.77,3.35,71.45,10.03,19.67,6.69,35.4,16.23,47.17,28.62l-40.83,41.1c-8.47-8.15-19.31-15-32.55-20.55-13.24-5.54-29.24-8.32-48-8.32-31.64,0-47.45,8.49-47.45,25.44,0,7.51,3.12,12.64,9.38,15.41,6.25,2.77,14.9,4.98,25.93,6.61l45.24,6.36c12.87,1.64,24.83,4.16,35.86,7.58s20.69,8.07,28.97,13.94c8.28,5.87,14.8,13.05,19.59,21.53,4.78,8.49,7.17,18.76,7.17,30.82,0,26.42-11.5,47.3-34.48,62.62-22.99,15.33-55.64,22.99-97.94,22.99Z"/><path class="d" d="M2643.23,105.39h81.66v155.58h3.31c3.31-7.17,7.35-13.86,12.14-20.06,4.78-6.19,10.57-11.66,17.38-16.39,6.8-4.72,14.71-8.48,23.73-11.25,9.01-2.77,19.22-4.16,30.62-4.16,13.61,0,26.11,2.04,37.52,6.12,11.4,4.08,21.15,10.2,29.24,18.35,8.09,8.16,14.43,18.1,19.04,29.84,4.59,11.74,6.9,25.28,6.9,40.61v163.41h-81.66v-153.62c0-32.61-16-48.93-48-48.93-6.26,0-12.41,.73-18.48,2.2-6.07,1.47-11.5,3.75-16.28,6.85-4.78,3.1-8.55,6.93-11.31,11.5-2.76,4.57-4.14,9.95-4.14,16.15v165.86h-81.66V105.39Z"/></g></g></g></svg>