<svg xmlns="http://www.w3.org/2000/svg" viewBox="0 0 2904.76 593.75"><defs><style>.cls-1{fill:#fb923c;}.cls-2{fill:#191d29;}.cls-3{fill:#191d27;}.cls-4{fill:#fff;}</style></defs><g id="Layer_2" data-name="Layer 2"><g id="Ebene_4" data-name="Ebene 4"><path class="cls-1" d="M319.59,5.62,527.53,125.68a41.94,41.94,0,0,1,20.16,28l48.66,241.62A42,42,0,0,1,576.2,440L319.6,588.13a42,42,0,0,1-42,0L21,440A42,42,0,0,1,.83,395.33L49.49,153.75a41.94,41.94,0,0,1,20.16-28l208-120.08A42,42,0,0,1,319.59,5.62Z"/><path class="cls-2" d="M458.19,208.55,310.25,294a23.35,23.35,0,0,1-23.32,0L139,208.55a23.31,23.31,0,0,1,0-40.38L286.93,82.76a23.33,23.33,0,0,1,23.31,0l148,85.41A23.32,23.32,0,0,1,458.19,208.55Z"/><path class="cls-1" d="M405.17,182.4a6.41,6.41,0,0,0-2.51-.76l-94.22-10.37a1.18,1.18,0,0,1-.5-.16.51.51,0,0,1-.29-.36L303,127.93a2.46,2.46,0,0,0-1.38-1.79,7.51,7.51,0,0,0-6.85,0L271.7,139.52a2.31,2.31,0,0,0-1.39,2.17l3.39,28.05L277,188.23a.45.45,0,0,1-.27.45l-.54.31a1.51,1.51,0,0,1-1.36,0L234,165.42a7.52,7.52,0,0,0-6.82,0l-21.91,12.73c-1.88,1.09-1.87,2.86,0,3.95l100.56,58.06a7.5,7.5,0,0,0,6.81,0l21.92-12.73c1.87-1.09,1.87-2.86,0-4l-27.71-16a.5.5,0,0,1-.28-.36l-1.43-13.69c0-.37.53-.66,1.15-.58l70.49,8.28a7.31,7.31,0,0,0,4.36-.77l24.1-14c2-1.16,1.75-2.93,0-4"/><path class="cls-3" d="M282.1,340.27V467.81a23.31,23.31,0,0,1-35,20.18L90.26,397.42a23.31,23.31,0,0,1-11.19-24.79l23-114.25a23.31,23.31,0,0,1,34.5-15.58l133.87,77.28A23.32,23.32,0,0,1,282.1,340.27Z"/><path class="cls-3" d="M315.09,340.3V467.83a23.31,23.31,0,0,0,35,20.19l156.87-90.57a23.3,23.3,0,0,0,11.2-24.79l-23-114.25a23.31,23.31,0,0,0-34.51-15.59L326.74,320.11A23.32,23.32,0,0,0,315.09,340.3Z"/><path class="cls-4" d="M892.85,325.06l-34.21,42.56v99.81H775.88V125.94h82.76V268.8h4.41L905,212l67.86-86.1h92.7L950.23,270.26l120.84,197.17H977.82Z"/><path class="cls-4" d="M1215.9,473.3q-71.73,0-108.69-35.22t-37-95.9q0-30.81,9.65-55.53a117,117,0,0,1,27.59-42.07q17.93-17.37,43.59-26.42t57.66-9q32,0,57.38,9t43,25.68a113.47,113.47,0,0,1,27.31,40.37q9.64,23.73,9.66,53.08v21.53H1151.35v4.4q0,24.48,17.1,39.39t50.21,14.92q25.36,0,43.59-8.56a101.81,101.81,0,0,0,31.45-22.75l44.14,42.56q-16.56,18.11-46.35,31.31T1215.9,473.3ZM1209.28,261q-26.49,0-42.21,14.43t-15.72,38.9v3.91h114.76V314.3q0-25-15.17-39.14T1209.28,261Z"/><path class="cls-4" d="M1574.23,215h83.32L1523.47,508q-12.69,27.88-33.65,42.56t-57.39,14.68h-56.27V508.53h40.53a41.77,41.77,0,0,0,38.57-25.76h0a41.76,41.76,0,0,0-.6-33.36L1347.46,215h87.73l41.38,106.17,25.94,73.38h4.41l24.83-73.38Z"/><path class="cls-4" d="M1679.66,467.43V215h73.74v37.18h4.33a85.74,85.74,0,0,1,21.38-30.33q14-12.72,39.35-12.72,46.47,0,57,43h3.72a86.73,86.73,0,0,1,9.3-16.63,59.65,59.65,0,0,1,13.63-13.7,64.31,64.31,0,0,1,19.21-9.3,89,89,0,0,1,26-3.42q66.93,0,66.92,77.79V467.43h-73.73V294.24q0-17.61-7.75-24.71t-20.14-7.09q-11.78,0-20.14,6.11t-8.36,18.84v180h-74.36V294.24q0-17.61-7.12-24.71t-19.52-7.09q-12.41,0-21.07,6.11t-8.67,18.84v180Z"/><path class="cls-4" d="M2288.51,467.43q-25.38,0-40.83-11.5t-18.21-33h-2.75a63,63,0,0,1-30.63,37.67q-22.9,12.72-56,12.72-41.39,0-66.49-19.81T2048.5,398q0-39.63,32.55-58.71t95.45-19.08h45.8V307.45q0-22.5-11.86-34t-40-11.49q-26,0-41.94,8.8a93.39,93.39,0,0,0-27.58,23l-44.7-35.23q14.34-21.52,45-35.47t78.63-13.94q58.47,0,91.31,23.73T2304,304.51V415.08h31.45v52.35ZM2171,425.84q21.51,0,36.41-9.29t14.9-26.91V359.31h-43.59q-50.21,0-50.21,29.84v9.79q0,13.2,11.59,20.06T2171,425.84Z"/><path class="cls-4" d="M2484.66,473.3q-47.46,0-82.48-12.72t-52.69-34.74l45.79-37.67a119,119,0,0,0,38.9,25.2q22.35,9.06,51,9.05,24.27,0,38.07-6.6t13.79-20.31q0-10.75-9.38-14.92T2501.77,374l-45.8-6.36a208.17,208.17,0,0,1-35.86-7.58,97.5,97.5,0,0,1-28.69-13.94,66.73,66.73,0,0,1-19.31-21.53q-7.18-12.72-7.18-30.82,0-39.63,34.21-62.14t96-22.5q41.92,0,71.45,10t47.17,28.62L2573,288.86q-12.7-12.23-32.56-20.55t-48-8.32q-47.46,0-47.45,25.44,0,11.26,9.38,15.41t25.93,6.61l45.24,6.36a210.39,210.39,0,0,1,35.87,7.58,101.86,101.86,0,0,1,29,13.94,66,66,0,0,1,19.58,21.53q7.17,12.74,7.18,30.82,0,39.63-34.49,62.63T2484.66,473.3Z"/><path class="cls-4" d="M2643.23,105.39h81.66V261h3.31a104,104,0,0,1,12.14-20.06,77.93,77.93,0,0,1,17.38-16.39,85.22,85.22,0,0,1,23.72-11.25,104.15,104.15,0,0,1,30.63-4.16,111,111,0,0,1,37.52,6.11,77.53,77.53,0,0,1,29.24,18.35,86.81,86.81,0,0,1,19,29.84q6.89,17.63,6.89,40.61V467.43H2823.1V313.81q0-48.92-48-48.93a78.69,78.69,0,0,0-18.48,2.2,52.51,52.51,0,0,0-16.28,6.85,35.65,35.65,0,0,0-11.31,11.5,30.63,30.63,0,0,0-4.14,16.15V467.43h-81.66Z"/></g></g></svg>