<svg xmlns="http://www.w3.org/2000/svg" viewBox="0 0 467.77 438.06"><defs><style>.cls-1{fill:#228cff;}</style></defs><g id="Layer_2" data-name="Layer 2"><g id="Layer_1-2" data-name="Layer 1"><path class="cls-1" d="M90.47,142.84V295.22a11.42,11.42,0,0,0,5.73,9.91l132,76.19a11.43,11.43,0,0,0,11.45,0l132-76.19a11.44,11.44,0,0,0,5.72-9.91V142.84a11.46,11.46,0,0,0-5.72-9.92l-132-76.19a11.48,11.48,0,0,0-11.45,0l-132,76.19A11.45,11.45,0,0,0,90.47,142.84Zm244.31,141-95.17,54.94a11.43,11.43,0,0,1-11.45,0L133,283.89a11.45,11.45,0,0,1-5.73-9.92V164.08a11.44,11.44,0,0,1,5.73-9.91l95.16-54.94a11.43,11.43,0,0,1,11.45,0l95.17,54.94a11.45,11.45,0,0,1,5.72,9.91V274A11.46,11.46,0,0,1,334.78,283.89Zm78.09-103.17,49.18,28.4a11.44,11.44,0,0,1,0,19.82l-49.18,28.4a11.45,11.45,0,0,1-17.17-9.92V190.64A11.45,11.45,0,0,1,412.87,180.72Zm-173.26-32,52.29,30.19a11.47,11.47,0,0,1,5.73,9.92v60.38a11.44,11.44,0,0,1-5.73,9.91l-52.29,30.19a11.43,11.43,0,0,1-11.45,0l-52.29-30.19a11.44,11.44,0,0,1-5.72-9.91V188.84a11.46,11.46,0,0,1,5.72-9.92l52.29-30.19A11.48,11.48,0,0,1,239.61,148.73ZM64.54,153.91l-4.7,2.72a11.45,11.45,0,0,1-17.17-9.92V115.24a11.46,11.46,0,0,1,5.72-9.92L92.82,79.67l90.91-52.49L228.16,1.53a11.48,11.48,0,0,1,11.45,0L284,27.18,375,79.67l44.43,25.65a11.46,11.46,0,0,1,5.72,9.92v31.47a11.45,11.45,0,0,1-17.17,9.92l-4.7-2.72A11.46,11.46,0,0,1,397.5,144V131.17a11.44,11.44,0,0,0-5.72-9.91L375,111.54,256.44,43.12,239.61,33.4a11.48,11.48,0,0,0-11.45,0l-16.83,9.72L92.82,111.54,76,121.26a11.44,11.44,0,0,0-5.72,9.91V144A11.44,11.44,0,0,1,64.54,153.91ZM403.23,284.15l4.7-2.72a11.45,11.45,0,0,1,17.17,9.92v31.47a11.44,11.44,0,0,1-5.72,9.91L375,358.38,284,410.87l-44.43,25.65a11.43,11.43,0,0,1-11.45,0l-44.43-25.65L92.82,358.38,48.39,332.73a11.44,11.44,0,0,1-5.72-9.91V291.35a11.45,11.45,0,0,1,17.17-9.92l4.7,2.72a11.42,11.42,0,0,1,5.73,9.91v12.83A11.46,11.46,0,0,0,76,316.8l16.83,9.71,118.51,68.43,16.83,9.72a11.48,11.48,0,0,0,11.45,0l16.83-9.72L375,326.51l16.83-9.71a11.46,11.46,0,0,0,5.72-9.91V294.06A11.44,11.44,0,0,1,403.23,284.15ZM54.9,257.34,5.72,228.94a11.44,11.44,0,0,1,0-19.82l49.18-28.4a11.45,11.45,0,0,1,17.17,9.92v56.78A11.45,11.45,0,0,1,54.9,257.34Z"/></g></g></svg>