<svg xmlns="http://www.w3.org/2000/svg" viewBox="0 0 346.41 392.62"><defs><style>.cls-1{fill:#fcb63a;}</style></defs><g id="Layer_2" data-name="Layer 2"><g id="Layer_1-2" data-name="Layer 1"><path class="cls-1" d="M259.81,232.55h0a23.83,23.83,0,0,1-11.92,20.64l-62.77,36.24a23.81,23.81,0,0,1-23.83,0h0a23.83,23.83,0,0,1,0-41.29l62.76-36.24A23.84,23.84,0,0,1,259.81,232.55Z"/><path class="cls-1" d="M161.29,3.19,11.92,89.43A23.84,23.84,0,0,0,0,110.08V282.55a23.81,23.81,0,0,0,11.92,20.64l149.37,86.24a23.81,23.81,0,0,0,23.83,0l149.37-86.24a23.81,23.81,0,0,0,11.92-20.64V110.08a23.84,23.84,0,0,0-11.92-20.65L185.12,3.19A23.86,23.86,0,0,0,161.29,3.19ZM294.49,280.1,185.12,343.24a23.81,23.81,0,0,1-23.83,0L51.92,280.1A23.83,23.83,0,0,1,40,259.46V133.17a23.84,23.84,0,0,1,11.92-20.65L161.29,49.38a23.81,23.81,0,0,1,23.83,0l109.37,63.14a23.84,23.84,0,0,1,11.92,20.65V259.46A23.83,23.83,0,0,1,294.49,280.1Z"/></g></g></svg>