<svg xmlns="http://www.w3.org/2000/svg" viewBox="0 0 467.78 438.06"><defs><style>.cls-1{fill:#ff3364;}</style></defs><g id="Layer_2" data-name="Layer 2"><g id="Layer_1-2" data-name="Layer 1"><path class="cls-1" d="M205.61,39.82,200.9,37.1a11.45,11.45,0,0,1,0-19.83L228.17,1.53a11.46,11.46,0,0,1,11.44,0l27.26,15.74a11.45,11.45,0,0,1,0,19.83l-4.71,2.72a11.46,11.46,0,0,1-11.44,0L239.61,33.4a11.46,11.46,0,0,0-11.44,0l-11.11,6.42A11.48,11.48,0,0,1,205.61,39.82Zm151,43.36V26.39a11.44,11.44,0,0,0-17.17-9.91L290.2,44.87a11.45,11.45,0,0,0,0,19.83l49.19,28.39A11.44,11.44,0,0,0,356.56,83.18Zm46.67,70.73,4.71,2.72a11.45,11.45,0,0,0,17.17-9.91V115.24a11.44,11.44,0,0,0-5.72-9.91L392.12,89.59A11.44,11.44,0,0,0,375,99.5v5.44a11.45,11.45,0,0,0,5.72,9.91l11.11,6.41a11.45,11.45,0,0,1,5.72,9.91V144A11.45,11.45,0,0,0,403.23,153.91ZM170.15,188.84v60.38a11.44,11.44,0,0,0,5.72,9.91l52.3,30.2a11.46,11.46,0,0,0,11.44,0l52.3-30.2a11.44,11.44,0,0,0,5.72-9.91V188.84a11.44,11.44,0,0,0-5.72-9.91l-52.3-30.2a11.46,11.46,0,0,0-11.44,0l-52.3,30.2A11.44,11.44,0,0,0,170.15,188.84ZM111.22,26.39V83.18a11.44,11.44,0,0,0,17.17,9.91L177.58,64.7a11.46,11.46,0,0,0,0-19.83L128.39,16.48A11.44,11.44,0,0,0,111.22,26.39Zm301.65,231,49.19-28.4a11.44,11.44,0,0,0,0-19.82l-49.19-28.4a11.45,11.45,0,0,0-17.17,9.91v56.8A11.45,11.45,0,0,0,412.87,257.34ZM239.61,56.73l132,76.2a11.44,11.44,0,0,1,5.72,9.91V295.22a11.44,11.44,0,0,1-5.72,9.91l-132,76.2a11.46,11.46,0,0,1-11.44,0l-132-76.2a11.44,11.44,0,0,1-5.72-9.91V142.84a11.44,11.44,0,0,1,5.72-9.91l132-76.2A11.46,11.46,0,0,1,239.61,56.73Zm95.17,97.44L239.61,99.23a11.41,11.41,0,0,0-11.44,0L133,154.17a11.45,11.45,0,0,0-5.72,9.91V274a11.46,11.46,0,0,0,5.72,9.91l95.17,54.94a11.41,11.41,0,0,0,11.44,0l95.17-54.94A11.46,11.46,0,0,0,340.5,274V164.08A11.45,11.45,0,0,0,334.78,154.17Zm21.78,257.5V354.88A11.44,11.44,0,0,0,339.39,345L290.2,373.36a11.45,11.45,0,0,0,0,19.83l49.19,28.39A11.44,11.44,0,0,0,356.56,411.67Zm-128.39-7-11.11-6.42a11.48,11.48,0,0,0-11.45,0L200.9,401a11.45,11.45,0,0,0,0,19.83l27.27,15.74a11.46,11.46,0,0,0,11.44,0l27.26-15.74a11.45,11.45,0,0,0,0-19.83l-4.71-2.72a11.46,11.46,0,0,0-11.44,0l-11.11,6.42A11.46,11.46,0,0,1,228.17,404.66ZM391.79,316.8l-11.11,6.41a11.45,11.45,0,0,0-5.72,9.91v5.44a11.44,11.44,0,0,0,17.16,9.91l27.27-15.74a11.44,11.44,0,0,0,5.72-9.91V291.34a11.45,11.45,0,0,0-17.17-9.91l-4.71,2.72a11.44,11.44,0,0,0-5.72,9.91v12.83A11.45,11.45,0,0,1,391.79,316.8ZM76,121.26l11.11-6.41a11.45,11.45,0,0,0,5.72-9.91V99.5a11.44,11.44,0,0,0-17.16-9.91L48.39,105.33a11.44,11.44,0,0,0-5.72,9.91v31.48a11.45,11.45,0,0,0,17.17,9.91l4.71-2.72A11.45,11.45,0,0,0,70.27,144V131.17A11.45,11.45,0,0,1,76,121.26ZM54.91,180.72,5.72,209.12a11.44,11.44,0,0,0,0,19.82l49.19,28.4a11.44,11.44,0,0,0,17.16-9.91v-56.8A11.44,11.44,0,0,0,54.91,180.72Zm9.64,103.43-4.71-2.72a11.45,11.45,0,0,0-17.17,9.91v31.48a11.44,11.44,0,0,0,5.72,9.91l27.27,15.74a11.44,11.44,0,0,0,17.16-9.91v-5.44a11.45,11.45,0,0,0-5.72-9.91L76,316.8a11.45,11.45,0,0,1-5.72-9.91V294.06A11.44,11.44,0,0,0,64.55,284.15Zm46.67,70.73v56.79a11.44,11.44,0,0,0,17.17,9.91l49.19-28.39a11.46,11.46,0,0,0,0-19.83L128.39,345A11.44,11.44,0,0,0,111.22,354.88Z"/></g></g></svg>