<svg xmlns="http://www.w3.org/2000/svg" viewBox="0 0 382.44 438.08"><defs><style>.cls-1{fill:#b029ff;}</style></defs><g id="Layer_2" data-name="Layer 2"><g id="Layer_1-2" data-name="Layer 1"><path class="cls-1" d="M47.8,142.8V295.28a11.36,11.36,0,0,0,5.69,9.84l132,76.24a11.38,11.38,0,0,0,11.37,0l132-76.24a11.35,11.35,0,0,0,5.68-9.84V142.8A11.35,11.35,0,0,0,329,133l-132-76.24a11.38,11.38,0,0,0-11.37,0L53.49,133A11.36,11.36,0,0,0,47.8,142.8ZM292.15,283.88l-95.25,55a11.38,11.38,0,0,1-11.37,0l-95.24-55A11.38,11.38,0,0,1,84.6,274v-110a11.36,11.36,0,0,1,5.69-9.84l95.24-55a11.38,11.38,0,0,1,11.37,0l95.25,55a11.35,11.35,0,0,1,5.68,9.84V274A11.37,11.37,0,0,1,292.15,283.88ZM247.42,45l49.41-28.53a11.37,11.37,0,0,1,17.05,9.85V83.33a11.36,11.36,0,0,1-17.05,9.84L247.42,64.64A11.37,11.37,0,0,1,247.42,45ZM163,39.85,158.12,37a11.37,11.37,0,0,1,0-19.69L185.53,1.52a11.38,11.38,0,0,1,11.37,0l27.42,15.83a11.37,11.37,0,0,1,0,19.69l-4.87,2.81a11.36,11.36,0,0,1-11.36,0L196.9,33.39a11.38,11.38,0,0,0-11.37,0l-11.18,6.46A11.38,11.38,0,0,1,163,39.85ZM135,64.64,85.6,93.17a11.36,11.36,0,0,1-17-9.84V26.27a11.37,11.37,0,0,1,17-9.85L135,45A11.37,11.37,0,0,1,135,64.64Zm241.73,40.72a11.36,11.36,0,0,1,5.69,9.84V322.88a11.36,11.36,0,0,1-5.69,9.84l-27.41,15.83a11.37,11.37,0,0,1-17.06-9.84v-5.62a11.36,11.36,0,0,1,5.69-9.84l11.18-6.46a11.38,11.38,0,0,0,5.69-9.85V131.14a11.39,11.39,0,0,0-5.69-9.85L338,114.84a11.38,11.38,0,0,1-5.69-9.85V99.38a11.38,11.38,0,0,1,17.06-9.85ZM196.9,148.72,249.27,179A11.36,11.36,0,0,1,255,188.8v60.48a11.36,11.36,0,0,1-5.69,9.84L196.9,289.36a11.38,11.38,0,0,1-11.37,0l-52.37-30.24a11.37,11.37,0,0,1-5.68-9.84V188.8a11.37,11.37,0,0,1,5.68-9.84l52.37-30.24A11.38,11.38,0,0,1,196.9,148.72Zm22.55,249.51,4.87,2.81a11.37,11.37,0,0,1,0,19.69L196.9,436.56a11.38,11.38,0,0,1-11.37,0l-27.41-15.83a11.37,11.37,0,0,1,0-19.69l4.86-2.81a11.38,11.38,0,0,1,11.37,0l11.18,6.46a11.38,11.38,0,0,0,11.37,0l11.19-6.46A11.36,11.36,0,0,1,219.45,398.23Zm28-24.79,49.41-28.53a11.37,11.37,0,0,1,17.05,9.85v57.06a11.36,11.36,0,0,1-17.05,9.84l-49.41-28.53A11.37,11.37,0,0,1,247.42,373.44ZM135,393.13,85.6,421.66a11.36,11.36,0,0,1-17-9.84V354.76a11.37,11.37,0,0,1,17-9.85L135,373.44A11.37,11.37,0,0,1,135,393.13ZM33.28,316.79l11.19,6.46a11.35,11.35,0,0,1,5.68,9.84v5.62a11.36,11.36,0,0,1-17,9.84L5.68,332.72A11.37,11.37,0,0,1,0,322.88V115.2a11.37,11.37,0,0,1,5.68-9.84L33.1,89.53a11.37,11.37,0,0,1,17,9.85V105a11.37,11.37,0,0,1-5.68,9.85l-11.19,6.45a11.4,11.4,0,0,0-5.68,9.85v175.8A11.39,11.39,0,0,0,33.28,316.79Z"/></g></g></svg>