<svg xmlns="http://www.w3.org/2000/svg" viewBox="0 0 346.41 392.67"><defs><style>.cls-1{fill:#5b5b5b;}</style></defs><g id="Layer_2" data-name="Layer 2"><g id="Layer_1-2" data-name="Layer 1"><path class="cls-1" d="M161.35,3.18,11.85,89.49A23.71,23.71,0,0,0,0,110V282.65a23.72,23.72,0,0,0,11.85,20.53l149.5,86.31a23.74,23.74,0,0,0,23.71,0l149.5-86.31a23.72,23.72,0,0,0,11.85-20.53V110a23.71,23.71,0,0,0-11.85-20.53L185.06,3.18A23.69,23.69,0,0,0,161.35,3.18Zm133.21,276.9L185.06,343.3a23.69,23.69,0,0,1-23.71,0L51.85,280.08A23.71,23.71,0,0,1,40,259.55V133.11a23.72,23.72,0,0,1,11.85-20.53l109.5-63.22a23.74,23.74,0,0,1,23.71,0l109.5,63.22a23.72,23.72,0,0,1,11.85,20.53V259.55A23.71,23.71,0,0,1,294.56,280.08Z"/></g></g></svg>